<mxfile host="app.diagrams.net" agent="Mozilla/5.0 (Windows NT 10.0; Win64; x64) AppleWebKit/537.36 (KHTML, like Gecko) Chrome/139.0.0.0 Safari/537.36" version="28.1.1">
  <diagram name="Página-1" id="J7WVPnLpp2adQL2h1Xdg">
    <mxGraphModel dx="1042" dy="527" grid="1" gridSize="10" guides="1" tooltips="1" connect="1" arrows="1" fold="1" page="1" pageScale="1" pageWidth="827" pageHeight="1169" math="0" shadow="0">
      <root>
        <mxCell id="0" />
        <mxCell id="1" parent="0" />
        <mxCell id="VS1AuGiKryQhvxLqi7kP-1" value="Usuário" style="shape=umlActor;verticalLabelPosition=bottom;verticalAlign=top;html=1;outlineConnect=0;" vertex="1" parent="1">
          <mxGeometry x="40" y="380" width="30" height="60" as="geometry" />
        </mxCell>
        <mxCell id="VS1AuGiKryQhvxLqi7kP-2" value="" style="whiteSpace=wrap;html=1;aspect=fixed;" vertex="1" parent="1">
          <mxGeometry x="220" y="60" width="560" height="560" as="geometry" />
        </mxCell>
        <mxCell id="VS1AuGiKryQhvxLqi7kP-7" value="Dataset" style="shape=cylinder3;whiteSpace=wrap;html=1;boundedLbl=1;backgroundOutline=1;size=15;" vertex="1" parent="1">
          <mxGeometry x="690" y="260" width="60" height="80" as="geometry" />
        </mxCell>
        <mxCell id="VS1AuGiKryQhvxLqi7kP-11" value="" style="endArrow=classic;html=1;rounded=0;entryX=0;entryY=0.5;entryDx=0;entryDy=0;" edge="1" parent="1" source="VS1AuGiKryQhvxLqi7kP-1" target="VS1AuGiKryQhvxLqi7kP-23">
          <mxGeometry width="50" height="50" relative="1" as="geometry">
            <mxPoint x="390" y="100" as="sourcePoint" />
            <mxPoint x="190" y="420" as="targetPoint" />
          </mxGeometry>
        </mxCell>
        <mxCell id="VS1AuGiKryQhvxLqi7kP-13" style="edgeStyle=orthogonalEdgeStyle;rounded=0;orthogonalLoop=1;jettySize=auto;html=1;exitX=1;exitY=0;exitDx=0;exitDy=0;" edge="1" parent="1" source="VS1AuGiKryQhvxLqi7kP-12" target="VS1AuGiKryQhvxLqi7kP-7">
          <mxGeometry relative="1" as="geometry" />
        </mxCell>
        <mxCell id="VS1AuGiKryQhvxLqi7kP-17" style="edgeStyle=orthogonalEdgeStyle;rounded=0;orthogonalLoop=1;jettySize=auto;html=1;exitX=1;exitY=1;exitDx=0;exitDy=0;" edge="1" parent="1" source="VS1AuGiKryQhvxLqi7kP-12" target="VS1AuGiKryQhvxLqi7kP-16">
          <mxGeometry relative="1" as="geometry" />
        </mxCell>
        <mxCell id="VS1AuGiKryQhvxLqi7kP-12" value="Treinar Imagem" style="ellipse;whiteSpace=wrap;html=1;" vertex="1" parent="1">
          <mxGeometry x="410" y="120" width="120" height="80" as="geometry" />
        </mxCell>
        <mxCell id="VS1AuGiKryQhvxLqi7kP-16" value="CNN" style="shape=cylinder3;whiteSpace=wrap;html=1;boundedLbl=1;backgroundOutline=1;size=15;" vertex="1" parent="1">
          <mxGeometry x="590" y="260" width="60" height="80" as="geometry" />
        </mxCell>
        <mxCell id="VS1AuGiKryQhvxLqi7kP-31" style="edgeStyle=orthogonalEdgeStyle;rounded=0;orthogonalLoop=1;jettySize=auto;html=1;exitX=0.5;exitY=1;exitDx=0;exitDy=0;" edge="1" parent="1" source="VS1AuGiKryQhvxLqi7kP-19" target="VS1AuGiKryQhvxLqi7kP-27">
          <mxGeometry relative="1" as="geometry" />
        </mxCell>
        <mxCell id="VS1AuGiKryQhvxLqi7kP-35" style="edgeStyle=orthogonalEdgeStyle;rounded=0;orthogonalLoop=1;jettySize=auto;html=1;exitX=1;exitY=0;exitDx=0;exitDy=0;" edge="1" parent="1" source="VS1AuGiKryQhvxLqi7kP-19" target="VS1AuGiKryQhvxLqi7kP-16">
          <mxGeometry relative="1" as="geometry">
            <Array as="points">
              <mxPoint x="620" y="382" />
            </Array>
          </mxGeometry>
        </mxCell>
        <mxCell id="VS1AuGiKryQhvxLqi7kP-19" value="Validador&amp;nbsp;" style="ellipse;whiteSpace=wrap;html=1;" vertex="1" parent="1">
          <mxGeometry x="440" y="370" width="120" height="80" as="geometry" />
        </mxCell>
        <mxCell id="VS1AuGiKryQhvxLqi7kP-25" style="edgeStyle=orthogonalEdgeStyle;rounded=0;orthogonalLoop=1;jettySize=auto;html=1;exitX=0.5;exitY=0;exitDx=0;exitDy=0;entryX=0;entryY=0.5;entryDx=0;entryDy=0;" edge="1" parent="1" source="VS1AuGiKryQhvxLqi7kP-23" target="VS1AuGiKryQhvxLqi7kP-12">
          <mxGeometry relative="1" as="geometry">
            <Array as="points">
              <mxPoint x="300" y="160" />
            </Array>
          </mxGeometry>
        </mxCell>
        <mxCell id="VS1AuGiKryQhvxLqi7kP-26" style="edgeStyle=orthogonalEdgeStyle;rounded=0;orthogonalLoop=1;jettySize=auto;html=1;exitX=1;exitY=0.5;exitDx=0;exitDy=0;" edge="1" parent="1" source="VS1AuGiKryQhvxLqi7kP-23" target="VS1AuGiKryQhvxLqi7kP-19">
          <mxGeometry relative="1" as="geometry" />
        </mxCell>
        <mxCell id="VS1AuGiKryQhvxLqi7kP-23" value="Interface De atividades" style="ellipse;whiteSpace=wrap;html=1;" vertex="1" parent="1">
          <mxGeometry x="240" y="370" width="120" height="80" as="geometry" />
        </mxCell>
        <mxCell id="VS1AuGiKryQhvxLqi7kP-27" value="Maquina De Estados" style="icon;html=1;image=img/clipart/Gear_128x128.png" vertex="1" parent="1">
          <mxGeometry x="470" y="525" width="60" height="60" as="geometry" />
        </mxCell>
        <mxCell id="VS1AuGiKryQhvxLqi7kP-37" style="edgeStyle=orthogonalEdgeStyle;rounded=0;orthogonalLoop=1;jettySize=auto;html=1;exitX=1;exitY=1;exitDx=0;exitDy=0;entryX=0.5;entryY=1;entryDx=0;entryDy=0;entryPerimeter=0;" edge="1" parent="1" source="VS1AuGiKryQhvxLqi7kP-19" target="VS1AuGiKryQhvxLqi7kP-7">
          <mxGeometry relative="1" as="geometry" />
        </mxCell>
      </root>
    </mxGraphModel>
  </diagram>
</mxfile>
